<?xml version="1.0" encoding="UTF-8" standalone="no"?>
<!DOCTYPE svg PUBLIC "-//W3C//DTD SVG 1.1//EN" "http://www.w3.org/Graphics/SVG/1.1/DTD/svg11.dtd">
<svg width="100%" height="100%" viewBox="0 0 4655 886" version="1.1" xmlns="http://www.w3.org/2000/svg" xmlns:xlink="http://www.w3.org/1999/xlink" xml:space="preserve" xmlns:serif="http://www.serif.com/" style="fill-rule:evenodd;clip-rule:evenodd;stroke-linejoin:round;stroke-miterlimit:2;">
    <g id="Capa-1" serif:id="Capa 1" transform="matrix(4.16667,0,0,4.16667,0,0)">
        <g transform="matrix(1,0,0,1,315.761,51.1255)">
            <path d="M0,115.92C21.993,115.92 29.782,97.363 29.782,57.957C29.782,18.551 21.993,-0.005 0,-0.005C-21.993,-0.005 -29.782,18.551 -29.782,57.957C-29.782,97.363 -21.993,115.92 0,115.92M0,-24.515C39.635,-24.515 68.73,2.059 68.73,57.957C68.73,113.856 39.635,140.435 0,140.435C-39.635,140.435 -68.73,113.856 -68.73,57.957C-68.73,2.059 -39.635,-24.515 0,-24.515" style="fill:white;fill-rule:nonzero;"/>
        </g>
        <g transform="matrix(1,0,0,1,487.356,74.7209)">
            <path d="M0,107.673C-5.959,113.632 -20.392,116.84 -33.905,116.84C-65.065,116.84 -92.554,97.363 -92.554,55.44C-92.554,12.14 -64.379,-9.167 -31.16,-9.167C-13.061,-9.167 0.229,-4.124 0.229,-4.124L0.229,34.819L-21.993,34.819L-21.993,16.263L-26.116,12.369C-27.031,12.14 -27.723,12.14 -28.638,12.14C-48.11,12.14 -56.356,27.031 -56.356,54.062C-56.356,81.099 -45.13,94.389 -24.286,94.389C-14.205,94.389 -3.208,91.181 0,90.032L0,107.673Z" style="fill:white;fill-rule:nonzero;"/>
        </g>
        <g transform="matrix(1,0,0,1,588.619,74.7209)">
            <path d="M0,107.673C-5.959,113.632 -20.392,116.84 -33.905,116.84C-65.065,116.84 -92.554,97.363 -92.554,55.44C-92.554,12.14 -64.379,-9.167 -31.16,-9.167C-13.061,-9.167 0.229,-4.124 0.229,-4.124L0.229,34.819L-21.993,34.819L-21.993,16.263L-26.116,12.369C-27.031,12.14 -27.723,12.14 -28.638,12.14C-48.11,12.14 -56.356,27.031 -56.356,54.062C-56.356,81.099 -45.13,94.389 -24.286,94.389C-14.205,94.389 -3.208,91.181 0,90.032L0,107.673Z" style="fill:white;fill-rule:nonzero;"/>
        </g>
        <g transform="matrix(1,0,0,1,627.567,189.268)">
            <path d="M0,-170.68C13.055,-170.68 19.472,-163.578 19.472,-152.352C19.472,-141.127 13.055,-134.024 0,-134.024C-13.061,-134.024 -19.477,-141.127 -19.477,-152.352C-19.477,-163.578 -13.061,-170.68 0,-170.68M8.932,-121.421C18.099,-121.421 19.472,-116.154 19.472,-111.339L19.472,-22.451L23.366,-18.328L33.676,-18.328L33.676,0L-29.553,0L-29.553,-18.328L-19.477,-18.328L-15.348,-22.451L-15.348,-97.826L-19.477,-101.95L-29.553,-101.95L-29.553,-121.421L8.932,-121.421Z" style="fill:white;fill-rule:nonzero;"/>
        </g>
        <g transform="matrix(1,0,0,1,743.024,53.6419)">
            <path d="M0,106.53L0,44.216C-5.496,39.178 -11.683,36.656 -18.557,36.656C-32.298,36.656 -39.172,48.11 -39.172,76.062C-39.172,104.7 -32.298,112.489 -18.094,112.489C-13.284,112.489 -6.411,111.111 0,106.53M12.603,135.626C3.437,135.626 2.064,130.359 2.064,125.544L2.064,121.192L1.378,121.192C-5.267,130.359 -16.035,138.147 -32.07,138.147C-56.585,138.147 -75.599,117.298 -75.599,76.519C-75.599,35.741 -53.377,11.912 -27.031,11.912C-15.806,11.912 -6.411,17.413 0,23.824L0,-8.017L-4.123,-12.14L-14.199,-12.14L-14.199,-31.617L24.286,-31.617C33.453,-31.617 34.825,-26.345 34.825,-21.536L34.825,113.175L38.949,117.298L49.03,117.298L49.03,135.626L12.603,135.626Z" style="fill:white;fill-rule:nonzero;"/>
        </g>
        <g transform="matrix(1,0,0,1,833.748,138.636)">
            <path d="M0,-20.158L31.612,-20.158L31.612,-28.175C31.612,-43.529 28.175,-51.089 16.95,-51.089C5.724,-51.089 1.144,-41.008 0,-20.158M61.394,-0.686L0,-0.686C2.516,22.222 14.891,30.473 32.532,30.473C45.13,30.473 55.212,26.802 59.106,25.659L59.106,44.444C52.919,48.567 40.779,52.924 20.615,52.924C-9.624,52.924 -35.969,34.825 -35.969,-7.789C-35.969,-49.94 -13.747,-73.082 17.179,-73.082C48.567,-73.082 65.517,-53.605 65.517,-23.824L65.517,-5.038L61.394,-0.686Z" style="fill:white;fill-rule:nonzero;"/>
        </g>
        <g transform="matrix(1,0,0,1,906.83,65.5535)">
            <path d="M0,123.714L0,105.386L10.076,105.386L14.199,101.263L14.199,25.888L10.076,21.765L0,21.765L0,2.293L36.427,2.293C45.588,2.293 46.96,7.56 46.96,12.375L46.96,16.498L47.652,16.498C51.547,11.912 63.687,0 81.786,0C109.046,0 117.069,16.498 117.069,36.656L117.069,101.263L121.192,105.386L131.268,105.386L131.268,123.714L70.789,123.714L70.789,105.386L78.349,105.386L82.243,101.263L82.243,42.157C82.243,35.283 81.557,25.888 67.124,25.888C59.106,25.888 52.462,29.553 49.025,32.075L49.025,101.263L52.919,105.386L60.479,105.386L60.479,123.714L0,123.714Z" style="fill:white;fill-rule:nonzero;"/>
        </g>
        <g transform="matrix(1,0,0,1,1090.79,140.014)">
            <path d="M0,-52.696L0,26.802L4.123,30.925L26.345,30.925L26.345,49.253C26.345,49.253 11.683,51.546 -4.586,51.546C-24.515,51.546 -34.825,44.215 -34.825,23.137L-34.825,-52.696L-49.03,-52.696L-49.03,-71.71L-38.948,-71.71L-34.825,-75.833L-21.765,-104.242L0,-104.242L0,-71.71L25.659,-71.71L25.659,-52.696L0,-52.696Z" style="fill:white;fill-rule:nonzero;"/>
        </g>
        <g transform="matrix(1,0,0,1,92.5009,92.7217)">
            <path d="M0,27.349C24.545,51.149 34.104,91.218 38.347,107.027C40.802,116.269 50.323,121.759 59.562,119.282C68.805,116.798 74.298,107.294 71.82,98.052C67.586,82.232 55.822,42.78 65.184,9.888C73.542,-23.265 103.45,-51.579 115.006,-63.136C121.788,-69.906 121.788,-80.887 115.006,-87.657C108.239,-94.41 97.261,-94.41 90.499,-87.657C78.933,-76.083 50.643,-46.17 17.478,-37.817C-15.416,-28.47 -54.877,-40.225 -70.683,-44.46C-79.931,-46.937 -89.432,-41.453 -91.898,-32.21C-94.396,-22.956 -88.902,-13.447 -79.654,-10.975C-63.846,-6.747 -23.8,2.804 0,27.349" style="fill:white;fill-rule:nonzero;"/>
        </g>
    </g>
</svg>
